#!OML:ASF Y:\EmotionMaleHayes\Project 1\Capture day 1\Session 1\Male1.ASF
:FULLY-SPECIFIED
:DEGREES
1306
root 34.8487 16.4751 17.2095 1010.54 106.633 1011.9
lowerback 3.30023 -1.24908 -19.1503
upperback 0.991095 -2.06767 -3.53875
thorax -0.220524 -0.958665 6.94689
lowerneck -22.708 4.42524 6.29635
upperneck 19.8461 5.181 -4.57225
head 10.3891 2.32743 -1.85822
rclavicle 1.55176e-014 4.45775e-014
rhumerus -54.8268 -11.176 -74.0866
rradius 29.4492
rwrist 4.51518
rhand -3.5598 -32.415
rfingers 7.12502
rthumb 22.1766 -61.163
lclavicle 1.55176e-014 4.45775e-014
lhumerus -19.9242 -22.6981 89.1301
lradius 38.8395
lwrist -2.06556
lhand -15.7012 -24.9308
lfingers 7.12502
lthumb 10.4884 4.78751
rfemur -23.6155 1.03259 -6.45461
rtibia 8.37367
rfoot -9.63676 5.08422
rtoes 28.7479
lfemur 20.186 2.31215 -38.3691
ltibia 7.78622
lfoot -17.6462 -6.34547
ltoes -2.42703
1307
root 34.9788 16.4594 17.2146 1011.36 106.85 1012.55
lowerback 3.23849 -1.26876 -19.2221
upperback 0.901454 -2.0954 -3.49082
thorax -0.271948 -0.963714 7.03729
lowerneck -22.5805 4.33559 5.91972
upperneck 19.7665 5.13753 -4.36185
head 10.3171 2.30645 -1.72971
rclavicle -1.15877e-014 7.20594e-016
rhumerus -54.7636 -10.8608 -74.1682
rradius 29.6274
rwrist 4.51079
rhand -3.68059 -32.187
rfingers 7.12502
rthumb 22.0607 -60.9487
lclavicle -1.15877e-014 7.20594e-016
lhumerus -20.5039 -22.6353 89.5685
lradius 38.5156
lwrist -2.17279
lhand -15.8836 -25.0873
lfingers 7.12502
lthumb 10.3125 4.6399
rfemur -23.7299 1.65391 -6.79646
rtibia 8.97259
rfoot -9.35067 4.81925
rtoes 30.0495
lfemur 20.4568 2.05975 -38.4618
ltibia 7.88987
lfoot -17.7542 -6.36622
ltoes -6.27209
1308
root 35.116 16.4453 17.2159 1012.57 106.766 1013.75
lowerback 3.29356 -1.25038 -18.8131
upperback 0.878641 -2.082 -3.44498
thorax -0.347438 -0.952491 6.86981
lowerneck -22.78 4.22234 5.57207
upperneck 19.9179 5.02221 -4.0791
head 10.3831 2.25845 -1.58803
rclavicle 1.06754e-014 1.12686e-014
rhumerus -54.7758 -10.6873 -74.3417
rradius 29.9478
rwrist 4.37869
rhand -3.95089 -32.0872
rfingers 7.12502
rthumb 21.8011 -60.8792
lclavicle 1.06754e-014 1.12686e-014
lhumerus -21.096 -22.7059 89.8906
lradius 38.2684
lwrist -2.40224
lhand -15.9889 -25.1509
lfingers 7.12502
lthumb 10.2109 4.58133
rfemur -23.5921 2.03814 -6.52865
rtibia 9.58127
rfoot -8.97718 4.43558
rtoes 31.09
lfemur 20.9691 1.61413 -38.2646
ltibia 7.92056
lfoot -17.7269 -6.46997
ltoes -6.44362
1309
root 35.2521 16.435 17.2263 1013.35 107.211 1014.28
lowerback 3.22007 -1.29541 -19.1208
upperback 0.76957 -2.14046 -3.53122
thorax -0.3999 -0.966147 6.94195
lowerneck -22.6965 4.22498 5.68477
upperneck 19.8868 5.03184 -4.237
head 10.3652 2.25385 -1.66236
rclavicle -1.50269e-014 -1.36789e-014
rhumerus -54.7045 -10.7099 -74.4086
rradius 30.1517
rwrist 4.62829
rhand -4.12241 -32.1229
rfingers 7.12502
rthumb 21.6364 -60.9341
lclavicle -1.50269e-014 -1.36789e-014
lhumerus -21.7454 -22.8265 90.1577
lradius 37.9029
lwrist -2.53831
lhand -16.0799 -25.2297
lfingers 7.12502
lthumb 10.1231 4.50678
rfemur -23.614 2.80807 -7.20439
rtibia 10.1588
rfoot -8.56104 3.98206
rtoes 32.0978
lfemur 21.0745 1.31012 -38.5583
ltibia 8.26716
lfoot -17.6692 -6.94237
ltoes -5.14754
1310
root 35.3805 16.4309 17.2161 1014.49 107.87 1015.23
lowerback 3.29708 -1.46055 -19.3243
upperback 0.645361 -2.39024 -3.6829
thorax -0.511137 -1.06618 6.89461
lowerneck -22.4814 4.21733 5.57821
upperneck 19.6735 5.04744 -4.1853
head 10.2454 2.26224 -1.62631
rclavicle 2.19733e-014 -4.04216e-014
rhumerus -54.5852 -10.6365 -74.4253
rradius 30.4024
rwrist 5.14196
rhand -4.49107 -31.4274
rfingers 7.12502
rthumb 21.2823 -60.2788
lclavicle 2.19733e-014 -4.04216e-014
lhumerus -22.5125 -22.5939 90.4254
lradius 37.5813
lwrist -2.7425
lhand -16.1179 -25.2569
lfingers 7.12502
lthumb 10.0864 4.48139
rfemur -23.4655 2.37325 -7.90365
rtibia 10.8128
rfoot -7.52302 4.37081
rtoes 31.6897
lfemur 21.2315 1.03629 -39.1433
ltibia 8.62537
lfoot -17.5852 -7.31632
ltoes -6.20426
1311
root 35.5329 16.4157 17.2427 1015.94 107.554 1016.64
lowerback 3.11923 -1.51257 -19.0523
upperback 0.683616 -2.41575 -3.46591
thorax -0.365404 -1.10146 6.97698
lowerneck -22.7743 4.23781 5.43067
upperneck 19.8398 5.06689 -3.99262
head 10.3495 2.27854 -1.52691
rclavicle -9.11808e-016 -2.10339e-014
rhumerus -54.1981 -10.3718 -74.5909
rradius 30.4012
rwrist 5.20001
rhand -5.00443 -30.3109
rfingers 7.12502
rthumb 20.7892 -59.2173
lclavicle -9.11808e-016 -2.10339e-014
lhumerus -23.1933 -22.1876 90.6919
lradius 37.3665
lwrist -3.05368
lhand -15.8728 -25.0837
lfingers 7.12502
lthumb 10.3229 4.64292
rfemur -23.209 3.92633 -7.59362
rtibia 10.9631
rfoot -7.2962 3.03584
rtoes 31.2247
lfemur 21.7352 0.634698 -38.3865
ltibia 8.61603
lfoot -17.3188 -7.36241
ltoes -6.89439
1312
root 35.6808 16.4081 17.2578 1016.61 107.672 1017.15
lowerback 2.96556 -1.49593 -19.1198
upperback 0.661198 -2.36413 -3.39891
thorax -0.310393 -1.08074 7.0802
lowerneck -22.9478 4.12715 5.2634
upperneck 19.8012 4.93776 -3.91756
head 10.3532 2.21242 -1.49137
rclavicle 5.65682e-015 3.80673e-014
rhumerus -53.855 -9.94266 -74.8629
rradius 30.4859
rwrist 4.78406
rhand -4.51013 -30.8157
rfingers 7.12502
rthumb 21.264 -59.6692
lclavicle 5.65682e-015 3.80673e-014
lhumerus -23.8165 -21.8978 91.0651
lradius 37.0046
lwrist -3.32189
lhand -15.673 -24.9338
lfingers 7.12502
lthumb 10.5156 4.78315
rfemur -23.186 4.37982 -7.68456
rtibia 11.2144
rfoot -6.66138 2.4769
rtoes 30.5337
lfemur 22.0567 0.213679 -38.3847
ltibia 8.66064
lfoot -17.0171 -7.35469
ltoes -6.62381
1313
root 35.8327 16.4064 17.2603 1017.22 108.128 1017.6
lowerback 2.86627 -1.51482 -19.3081
upperback 0.62785 -2.36793 -3.47319
thorax -0.283563 -1.07922 7.09777
lowerneck -22.8928 4.0879 5.28566
upperneck 19.5962 4.93246 -4.17054
head 10.2768 2.18134 -1.58682
rclavicle 3.16091e-014 2.12203e-014
rhumerus -53.6343 -9.55071 -75.1358
rradius 30.7165
rwrist 4.39786
rhand -4.16946 -31.8552
rfingers 7.12502
rthumb 21.5912 -60.6715
lclavicle 3.16091e-014 2.12203e-014
lhumerus -24.3796 -21.7282 91.4173
lradius 36.4123
lwrist -3.58419
lhand -15.9079 -25.1558
lfingers 7.12502
lthumb 10.289 4.57255
rfemur -23.0284 3.73488 -8.0239
rtibia 11.3872
rfoot -5.48202 2.83286
rtoes 29.9508
lfemur 22.4217 -0.219496 -38.8591
ltibia 8.69052
lfoot -16.8385 -7.2799
ltoes -7.82322
1314
root 35.963 16.4028 17.2784 1018.34 107.73 1018.51
lowerback 2.92237 -1.44853 -18.8271
upperback 0.551628 -2.30677 -3.29523
thorax -0.430057 -1.04033 7.03584
lowerneck -22.8318 3.91807 5.17318
upperneck 19.3093 4.74233 -4.24746
head 10.1516 2.07651 -1.62631
rclavicle 8.93755e-015 -3.97569e-014
rhumerus -53.1949 -9.32335 -75.2822
rradius 30.6669
rwrist 4.08427
rhand -5.28333 -31.8672
rfingers 7.12502
rthumb 20.5212 -60.8027
lclavicle 8.93755e-015 -3.97569e-014
lhumerus -24.8665 -21.361 91.6529
lradius 35.809
lwrist -4.07814
lhand -16.1298 -25.4463
lfingers 7.12502
lthumb 10.0749 4.29252
rfemur -23.3582 4.09289 -7.48279
rtibia 11.7524
rfoot -4.4331 2.54752
rtoes 29.0534
lfemur 22.5494 -0.740224 -38.3172
ltibia 8.87549
lfoot -16.8971 -6.75621
ltoes -10.8431
1315
root 36.1132 16.4033 17.2876 1020.02 107.396 1020.04
lowerback 2.74028 -1.44622 -18.2236
upperback 0.522347 -2.26368 -3.13716
thorax -0.389766 -1.02901 6.87613
lowerneck -22.4479 3.88001 5.8501
upperneck 18.7671 4.68786 -5.19292
head 9.92991 1.99488 -2.08321
rclavicle 1.74309e-014 -1.98785e-015
rhumerus -52.9281 -9.33422 -75.2242
rradius 30.8314
rwrist 3.86549
rhand -3.41593 -33.1749
rfingers 7.12502
rthumb 22.3147 -61.9063
lclavicle 1.74309e-014 -1.98785e-015
lhumerus -25.4283 -20.7085 91.885
lradius 35.1898
lwrist -4.8804
lhand -16.0864 -25.4614
lfingers 7.12502
lthumb 10.1168 4.2754
rfemur -23.3652 3.99287 -6.81132
rtibia 12.1432
rfoot -3.13363 2.45261
rtoes 28.5608
lfemur 22.802 -1.17831 -37.7562
ltibia 9.11598
lfoot -16.8799 -6.33381
ltoes -13.6897
1316
root 36.2534 16.4162 17.279 1022.01 107.356 1021.88
lowerback 2.70931 -1.44776 -17.4583
upperback 0.392681 -2.26242 -3.18105
thorax -0.547186 -1.01264 6.41823
lowerneck -22.8479 3.71076 5.00912
upperneck 19.2123 4.45232 -4.03899
head 10.0948 1.9554 -1.57055
rclavicle 8.73721e-015 -6.41081e-014
rhumerus -53.0035 -9.46208 -75.2175
rradius 31.2792
rwrist 3.66829
rhand -4.29857 -32.5797
rfingers 7.12502
rthumb 21.4672 -61.4102
lclavicle 8.73721e-015 -6.41081e-014
lhumerus -26.1599 -20.0722 92.0791
lradius 34.4465
lwrist -5.85163
lhand -15.9413 -25.608
lfingers 7.12502
lthumb 10.2567 4.12195
rfemur -23.3337 3.00582 -6.28017
rtibia 12.9815
rfoot -1.34328 3.06187
rtoes 28.4707
lfemur 23.017 -1.66624 -37.598
ltibia 9.4255
lfoot -16.5277 -6.10246
ltoes -13.9306
